<?xml version="1.0" standalone="no"?>
<!DOCTYPE svg PUBLIC "-//W3C//DTD SVG 20010904//EN"
 "http://www.w3.org/TR/2001/REC-SVG-20010904/DTD/svg10.dtd">
<svg version="1.0" xmlns="http://www.w3.org/2000/svg"
 width="150.000000pt" height="100.000000pt" viewBox="0 0 500.000000 500.000000"
 preserveAspectRatio="xMidYMid meet">

<g transform="translate(0.000000,500.000000) scale(0.100000,-0.100000)"
fill="#000000" stroke="none">
<path d="M3665 3226 c-89 -51 -166 -91 -173 -88 -7 2 -34 -7 -61 -21 l-48 -26
-184 35 c-101 18 -194 34 -207 34 -13 0 -37 7 -55 16 l-32 17 23 -26 c13 -13
48 -34 78 -46 61 -23 100 -54 89 -71 -5 -8 -2 -8 12 0 15 10 27 9 56 -3 20 -9
37 -21 37 -27 0 -6 8 -9 18 -6 16 5 51 -9 42 -17 -23 -20 -222 -125 -246 -130
-24 -5 -47 2 -99 30 -57 30 -70 34 -91 24 l-24 -11 25 -51 26 -51 -77 7 c-83
8 -95 -3 -26 -26 20 -7 52 -18 71 -26 33 -14 33 -14 15 -35 l-19 -21 44 7 c37
6 48 3 77 -19 40 -31 54 -26 54 19 0 33 1 34 92 66 51 17 119 46 153 62 105
54 215 67 215 26 0 -9 3 -9 12 0 18 18 28 15 28 -9 0 -11 4 -18 9 -15 13 9 34
-21 25 -36 -6 -9 -3 -9 9 1 15 12 20 11 36 -3 15 -14 23 -15 45 -5 17 8 25 18
21 27 -3 7 -8 30 -11 50 -5 36 -4 37 45 59 54 23 66 48 35 73 -13 11 -23 10
-60 -8 -54 -27 -54 -27 -54 -4 0 30 58 76 185 147 247 139 272 176 117 174
-66 0 -70 -2 -227 -93z"/>
<path d="M1288 2728 c21 -41 29 -331 13 -464 -17 -140 -41 -158 -138 -103
l-55 30 -55 -47 c-50 -43 -54 -49 -38 -60 24 -18 98 -28 152 -20 103 14 233
102 247 168 3 13 7 120 9 238 2 175 6 222 19 253 l17 37 -94 0 -93 0 16 -32z"/>
<path d="M2256 2725 c11 -27 14 -92 14 -310 0 -218 -3 -283 -14 -310 l-15 -35
229 0 229 0 -13 38 c-8 20 -19 50 -25 65 l-11 29 -35 -31 c-34 -30 -39 -31
-126 -31 l-90 0 3 123 3 122 48 3 c26 2 72 -4 102 -12 29 -9 56 -16 59 -16 3
0 6 27 6 60 0 33 -2 60 -4 60 -2 0 -20 -7 -39 -15 -21 -9 -67 -15 -107 -15
l-70 0 0 120 0 120 87 0 c78 0 91 -3 125 -26 21 -15 40 -25 42 -23 2 2 13 30
25 62 l21 57 -230 0 -229 0 15 -35z"/>
<path d="M1963 2598 c-40 -41 -73 -77 -73 -81 0 -4 9 -7 19 -7 18 0 19 -8 14
-178 -6 -198 0 -228 57 -257 58 -30 189 -9 227 36 10 12 1 14 -57 14 -109 0
-110 1 -110 212 l0 173 49 0 c35 0 51 4 55 16 11 30 6 34 -49 34 l-54 0 -3 55
-3 56 -72 -73z"/>
<path d="M2835 2565 c-57 -26 -57 -26 -32 -89 l24 -57 25 33 c32 42 102 76
126 62 18 -12 36 -69 28 -90 -3 -7 -67 -44 -143 -82 -137 -69 -138 -70 -141
-106 -4 -43 22 -90 74 -135 56 -50 111 -42 186 26 l26 25 7 -31 c10 -47 33
-54 93 -29 43 18 49 24 39 36 -8 10 -14 70 -17 173 -6 186 -10 196 -110 247
-70 35 -133 42 -185 17z m163 -387 c-7 -4 -36 -8 -65 -8 -56 0 -79 14 -89 56
-9 36 17 67 93 113 l68 41 3 -97 c2 -70 -1 -99 -10 -105z"/>
<path d="M1599 2547 c-34 -18 -51 -36 -73 -80 -25 -49 -29 -68 -29 -140 0
-135 44 -226 126 -256 66 -25 177 -2 219 45 16 18 15 19 -55 16 -80 -4 -113
12 -142 67 -14 27 -12 30 97 165 110 136 111 137 92 158 -47 53 -160 65 -235
25z m116 -67 c8 -7 15 -22 15 -33 0 -26 -101 -181 -111 -170 -12 12 -39 127
-39 164 0 38 8 54 30 61 21 7 87 -7 105 -22z"/>
<path d="M3295 2556 c-44 -19 -85 -71 -85 -108 0 -68 54 -129 213 -238 87 -60
96 -83 34 -88 -48 -4 -116 28 -155 73 l-30 33 -42 -43 c-25 -26 -40 -49 -37
-58 3 -8 29 -26 58 -41 43 -21 67 -26 128 -26 126 1 196 45 196 125 0 54 -14
70 -165 185 -131 99 -147 115 -129 126 35 22 110 -2 181 -58 l37 -29 16 37
c32 77 31 82 -16 104 -52 23 -158 26 -204 6z"/>
<path d="M3719 2547 c-34 -18 -51 -36 -73 -80 -25 -49 -29 -68 -29 -140 0
-135 44 -226 126 -256 66 -25 177 -2 219 45 16 18 15 19 -55 16 -80 -4 -113
12 -142 67 -14 27 -12 30 97 165 110 136 111 137 92 158 -47 53 -160 65 -235
25z m116 -67 c8 -7 15 -22 15 -33 0 -26 -101 -181 -111 -170 -12 12 -39 127
-39 164 0 38 8 54 30 61 21 7 87 -7 105 -22z"/>
<path d="M1563 1775 c0 -38 2 -53 4 -32 2 20 2 52 0 70 -2 17 -4 1 -4 -38z"/>
<path d="M1983 1775 c0 -38 2 -56 4 -38 5 37 28 62 44 46 6 -6 15 -26 19 -45
l8 -33 1 36 c1 42 -18 64 -48 54 -16 -5 -20 -1 -24 22 -2 15 -4 -3 -4 -42z"/>
<path d="M2763 1775 c0 -54 1 -61 6 -30 5 31 10 40 26 40 16 0 21 -9 26 -40
l7 -40 -2 45 c-1 41 -3 45 -26 45 -18 0 -27 7 -31 25 -4 14 -7 -6 -6 -45z"/>
<path d="M1472 1768 c0 -35 3 -49 5 -31 3 26 9 33 31 36 l27 4 -27 2 c-21 1
-28 6 -28 20 0 15 8 21 33 24 31 4 31 4 -5 5 l-38 2 2 -62z"/>
<path d="M1752 1773 l-2 -63 38 2 c36 1 36 1 5 5 -31 4 -32 5 -36 61 l-3 57
-2 -62z"/>
<path d="M2232 1768 c0 -35 3 -49 5 -31 3 26 9 33 31 36 l27 4 -27 2 c-21 1
-28 6 -28 20 0 15 8 21 33 24 31 4 31 4 -5 5 l-38 2 2 -62z"/>
<path d="M2320 1770 c0 -33 4 -60 10 -60 6 0 10 27 10 60 0 33 -4 60 -10 60
-6 0 -10 -27 -10 -60z"/>
<path d="M2511 1768 c1 -35 4 -51 6 -35 6 35 36 36 52 1 6 -15 14 -24 18 -21
3 4 0 14 -7 22 -11 13 -11 20 0 40 19 35 7 55 -35 55 l-35 0 1 -62z m66 36 c7
-18 -14 -35 -37 -31 -8 1 -16 12 -18 25 -3 18 1 22 23 22 14 0 28 -7 32 -16z"/>
<path d="M2089 1811 c-3 -8 -2 -32 1 -55 4 -31 10 -41 25 -44 18 -2 18 -2 3 8
-10 6 -18 22 -18 35 0 13 8 29 18 34 15 9 15 10 0 11 -9 0 -18 6 -20 13 -4 9
-6 8 -9 -2z"/>
<path d="M2863 1805 c-6 -7 -8 -16 -3 -21 5 -5 10 -22 12 -38 2 -16 9 -31 16
-32 7 -1 8 0 2 3 -12 6 -13 70 -1 75 5 2 4 8 -3 14 -8 8 -15 7 -23 -1z"/>
<path d="M1601 1794 c-1 -6 6 -28 14 -48 12 -27 13 -42 5 -56 -6 -11 -7 -20
-3 -20 10 1 65 121 59 128 -3 2 -13 -12 -23 -33 l-18 -37 -17 39 c-9 21 -17
33 -17 27z"/>
<path d="M1843 1755 c0 -27 2 -38 4 -22 2 15 2 37 0 50 -2 12 -4 0 -4 -28z"/>
<path d="M1892 1788 c-5 -7 -9 -35 -9 -63 2 -49 3 -50 32 -50 23 0 31 5 33 21
2 17 -4 23 -30 29 -32 8 -32 8 -6 12 19 3 29 13 37 34 9 28 9 29 -18 29 -16 0
-33 -6 -39 -12z m46 -15 c5 -17 -26 -29 -40 -15 -6 6 -7 15 -3 22 9 14 37 9
43 -7z m2 -74 c0 -15 -30 -23 -42 -11 -6 6 -7 15 -4 20 7 12 46 4 46 -9z"/>
<path d="M2361 1797 c-1 -4 6 -24 14 -43 8 -20 13 -48 10 -63 -3 -14 9 3 26
38 16 35 28 65 26 67 -2 3 -10 -9 -17 -26 -16 -38 -23 -38 -43 3 -8 17 -16 28
-16 24z"/>
<path d="M2623 1755 c0 -27 2 -38 4 -22 2 15 2 37 0 50 -2 12 -4 0 -4 -28z"/>
<path d="M2666 1791 c-3 -5 -5 -20 -4 -32 1 -13 -2 -33 -5 -45 -10 -28 15 -48
48 -40 35 9 31 33 -7 50 -27 12 -29 15 -12 15 24 1 48 24 37 35 -4 4 -1 11 7
16 11 7 5 10 -22 10 -20 0 -39 -4 -42 -9z m44 -21 c0 -21 -24 -28 -35 -10 -8
14 3 30 21 30 8 0 14 -9 14 -20z m7 -74 c-5 -17 -47 -20 -47 -3 0 20 9 26 31
20 11 -3 18 -11 16 -17z"/>
<path d="M2146 1715 c-9 -26 -7 -32 5 -12 6 10 9 21 6 23 -2 3 -7 -2 -11 -11z"/>
</g>
</svg>
